<svg viewBox="0 0 100 100" xmlns="http://www.w3.org/2000/svg">
  <rect width="100" height="100" rx="22" fill="#0B0C10"/>
  <polygon points="50,33 64.72,41.5 64.72,58.5 50,67 35.28,58.5 35.28,41.5" fill="#fff" stroke="#fff" stroke-width="4.5" stroke-linejoin="round"/>
  <g fill="#fff">
    <rect x="72" y="39" width="11" height="22" rx="5" transform="rotate(60 50 50)"/>
    <rect x="72" y="39" width="11" height="22" rx="5" transform="rotate(120 50 50)"/>
    <rect x="72" y="39" width="11" height="22" rx="5" transform="rotate(180 50 50)"/>
    <rect x="72" y="39" width="11" height="22" rx="5" transform="rotate(240 50 50)"/>
    <rect x="72" y="39" width="11" height="22" rx="5" transform="rotate(300 50 50)"/>
  </g>
  <rect x="72" y="39" width="11" height="22" rx="5" fill="#CDF24A"/>
</svg>
